<svg width="18" height="18" viewBox="0 0 28 28" fill="none" xmlns="http://www.w3.org/2000/svg">
<path fill-rule="evenodd" clip-rule="evenodd" d="M2.71249 14.4121C1.60392 20.6261 2.45487 22.9487 3.71321 24.0266C4.41535 24.628 5.51674 25.104 7.28151 25.4054C9.04292 25.7062 11.2521 25.8 14 25.8C16.7479 25.8 18.9571 25.7062 20.7185 25.4054C22.4833 25.104 23.5847 24.628 24.2868 24.0266C25.5451 22.9487 26.3961 20.6261 25.2875 14.4121C25.1975 13.9682 25.1115 13.5409 25.0287 13.1293C24.588 10.9383 24.2361 9.18904 23.8371 7.73003C23.3629 5.99628 22.8867 4.93802 22.3202 4.23102C21.3294 2.99463 19.539 2.2 14 2.2C8.46099 2.2 6.67063 2.99463 5.67984 4.23101C5.11328 4.93802 4.63709 5.99628 4.16292 7.73004C3.76391 9.189 3.41204 10.9382 2.9713 13.1291L2.97129 13.1291C2.88846 13.5408 2.8025 13.9682 2.71249 14.4121ZM14 28C25.075 28 29.6902 26.5263 27.4487 14C27.3593 13.5591 27.2732 13.131 27.1897 12.7155L27.1896 12.7152C25.1793 2.71683 24.633 0 14 0C3.36702 0 2.82076 2.71679 0.81043 12.715C0.726856 13.1306 0.640752 13.5589 0.551287 14C-1.69013 26.5263 2.92498 28 14 28ZM18.9 7C18.9 6.39249 19.3925 5.9 20 5.9C20.6075 5.9 21.1 6.39249 21.1 7C21.1 9.04237 20.1623 10.6098 18.7798 11.6339C17.429 12.6345 15.6861 13.1 14 13.1C12.3139 13.1 10.571 12.6345 9.22025 11.6339C7.83775 10.6098 6.9 9.04237 6.9 7C6.9 6.39249 7.39249 5.9 8 5.9C8.60751 5.9 9.1 6.39249 9.1 7C9.1 8.29096 9.66225 9.22349 10.5298 9.86609C11.429 10.5322 12.6861 10.9 14 10.9C15.3139 10.9 16.571 10.5322 17.4702 9.86609C18.3377 9.2235 18.9 8.29096 18.9 7Z" fill="black"/>
</svg>
