<svg width="18" height="18" viewBox="0 0 20 21" fill="none" xmlns="http://www.w3.org/2000/svg">
<path fill-rule="evenodd" clip-rule="evenodd" d="M6.53782 0C6.08643 0 5.72052 0.365917 5.72052 0.817299V1.85202C1.1134 2.53873 0 4.90653 0 11.3078C0 19.2894 1.73104 21.0001 9.8076 21.0001C17.8842 21.0001 19.6152 19.2894 19.6152 11.3078C19.6152 4.9066 18.5018 2.53878 13.8948 1.85204V0.8173C13.8948 0.365918 13.5289 0 13.0775 0C12.6262 0 12.2602 0.365917 12.2602 0.817299V1.68432C11.5161 1.63632 10.7007 1.61541 9.8076 1.61541C8.91461 1.61541 8.0992 1.63632 7.35512 1.68431V0.8173C7.35512 0.365918 6.9892 0 6.53782 0ZM12.2602 3.30331C11.5407 3.25386 10.7279 3.2308 9.8076 3.2308C8.88742 3.2308 8.0746 3.25386 7.35512 3.3033V4.02888C7.35512 4.48027 6.9892 4.84618 6.53782 4.84618C6.08643 4.84618 5.72052 4.48027 5.72052 4.02888V3.4875C5.5442 3.51726 5.37563 3.5498 5.2144 3.58521C4.10551 3.82875 3.44688 4.18628 3.01058 4.61745C2.39401 5.22678 1.97118 6.22751 1.76348 8.07666H17.8517C17.644 6.22751 17.2212 5.22678 16.6046 4.61745C16.1683 4.18628 15.5097 3.82875 14.4008 3.58521C14.2396 3.54981 14.0711 3.51728 13.8948 3.48753V4.02888C13.8948 4.48027 13.5289 4.84618 13.0775 4.84618C12.6262 4.84618 12.2602 4.48027 12.2602 4.02888V3.30331ZM1.61539 11.3078C1.61539 10.7225 1.62559 10.1854 1.64576 9.69205H17.9694C17.9896 10.1854 17.9998 10.7225 17.9998 11.3078C17.9998 15.3568 17.512 17.1013 16.6046 17.9981C16.1683 18.4293 15.5097 18.7868 14.4008 19.0303C13.2746 19.2777 11.7904 19.3847 9.8076 19.3847C7.82485 19.3847 6.34059 19.2777 5.2144 19.0303C4.10551 18.7868 3.44688 18.4293 3.01058 17.9981C2.10316 17.1013 1.61539 15.3568 1.61539 11.3078ZM4.89377 12.1152C4.4477 12.1152 4.08608 12.4769 4.08608 12.9229C4.08608 13.369 4.4477 13.7306 4.89377 13.7306H7.36488C7.81096 13.7306 8.17258 13.369 8.17258 12.9229C8.17258 12.4769 7.81096 12.1152 7.36488 12.1152H4.89377ZM4.08608 16.1539C4.08608 15.7078 4.4477 15.3462 4.89377 15.3462H7.36488C7.81096 15.3462 8.17258 15.7078 8.17258 16.1539C8.17258 16.6 7.81096 16.9616 7.36488 16.9616H4.89377C4.4477 16.9616 4.08608 16.6 4.08608 16.1539ZM12.2497 12.1152C11.8037 12.1152 11.442 12.4769 11.442 12.9229C11.442 13.369 11.8037 13.7306 12.2497 13.7306H14.7208C15.1669 13.7306 15.5285 13.369 15.5285 12.9229C15.5285 12.4769 15.1669 12.1152 14.7208 12.1152H12.2497ZM11.442 16.1539C11.442 15.7078 11.8037 15.3462 12.2497 15.3462H14.7208C15.1669 15.3462 15.5285 15.7078 15.5285 16.1539C15.5285 16.6 15.1669 16.9616 14.7208 16.9616H12.2497C11.8037 16.9616 11.442 16.6 11.442 16.1539Z" fill="black"/>
</svg>
