<svg width="18" height="18" viewBox="0 0 28 28" fill="none" xmlns="http://www.w3.org/2000/svg">
<path d="M1.1 14C1.1 16.8571 1.25453 19.078 1.64004 20.8127C2.02277 22.5348 2.61838 23.7095 3.45444 24.5456C4.2905 25.3816 5.46521 25.9772 7.18735 26.36C8.92198 26.7455 11.1429 26.9 14 26.9C16.8571 26.9 19.078 26.7455 20.8127 26.36C22.5348 25.9772 23.7095 25.3816 24.5456 24.5456C25.3816 23.7095 25.9772 22.5348 26.36 20.8127C26.7455 19.078 26.9 16.8571 26.9 14C26.9 11.1429 26.7455 8.92198 26.36 7.18735C25.9772 5.46521 25.3816 4.2905 24.5456 3.45444C23.7095 2.61838 22.5348 2.02277 20.8127 1.64004C19.078 1.25453 16.8571 1.1 14 1.1C11.1429 1.1 8.92198 1.25453 7.18735 1.64004C5.46521 2.02277 4.2905 2.61838 3.45444 3.45444C2.61838 4.2905 2.02277 5.46521 1.64004 7.18735C1.25453 8.92198 1.1 11.1429 1.1 14Z" stroke="black" stroke-width="2.2" stroke-linecap="round" stroke-linejoin="round"/>
<path d="M14 7C14 7 14 11.6667 14 12.8333C14 14 14 14 15.1667 14C16.3333 14 21 14 21 14" stroke="black" stroke-width="2.2" stroke-linecap="round" stroke-linejoin="round"/>
</svg>
