<svg width="18" height="18" viewBox="0 0 20 20" fill="none" xmlns="http://www.w3.org/2000/svg">
<path d="M10.4469 12.3996C11.0376 12.8158 11.6569 13.1657 12.2953 13.4305C12.6917 13.5742 13.3137 13.1672 13.771 12.8679C13.8854 12.7931 13.9894 12.725 14.077 12.6739L14.1058 12.6578C14.5366 12.4158 15.015 12.1472 15.6301 12.2767C16.1827 12.3902 18.0788 13.8844 18.6029 14.414C18.9459 14.7545 19.1365 15.1139 19.165 15.4827C19.2222 16.854 17.3833 18.3955 16.945 18.6604C16.0112 19.3413 14.7631 19.3318 13.2576 18.6509C11.6474 17.9983 9.72272 16.627 7.86475 14.9626C7.19965 14.3667 5.92241 13.1123 5.55893 12.6933C3.6819 10.66 2.10024 8.47533 1.35705 6.70683C1.00451 5.9597 0.833008 5.26932 0.833008 4.6546C0.833008 4.04934 1.00451 3.51027 1.338 3.04687C1.53809 2.69695 3.14833 0.786584 4.56801 0.833871C4.92055 0.871699 5.28262 1.05139 5.63516 1.39185C6.16873 1.912 7.70275 3.79399 7.81708 4.35197C7.94753 4.95313 7.67704 5.42767 7.43335 5.85519L7.4169 5.88405C7.36198 5.97894 7.28752 6.09151 7.20611 6.21457C6.9062 6.66794 6.51207 7.26375 6.65371 7.64309C7.0072 8.51316 7.51219 9.36432 8.12103 10.1493C8.79673 10.9572 9.85611 11.9835 10.4469 12.3996Z" stroke="black" stroke-width="1.66667"/>
</svg>
