<svg width="18" height="18" viewBox="0 0 21 18" fill="none" xmlns="http://www.w3.org/2000/svg">
<path d="M0.75 13.5716C0.75 14.2724 0.819893 14.7508 0.956355 15.0919C1.08076 15.4028 1.26987 15.625 1.59329 15.8046C1.94383 15.9994 2.47204 16.1542 3.28263 16.2543C4.0872 16.3536 5.11422 16.3931 6.42857 16.3931C7.74293 16.3931 8.76994 16.3536 9.57451 16.2543C10.3851 16.1542 10.9133 15.9994 11.2638 15.8046C11.5873 15.625 11.7764 15.4028 11.9008 15.0919C12.0372 14.7508 12.1071 14.2724 12.1071 13.5716C12.1071 12.8709 12.0372 12.3925 11.9008 12.0514C11.7764 11.7404 11.5873 11.5183 11.2638 11.3386C10.9133 11.1439 10.3851 10.9891 9.57451 10.889C8.76994 10.7897 7.74293 10.7502 6.42857 10.7502C5.11422 10.7502 4.0872 10.7897 3.28263 10.889C2.47204 10.9891 1.94383 11.1439 1.59329 11.3386C1.26987 11.5183 1.08076 11.7404 0.956355 12.0514C0.819893 12.3925 0.75 12.8709 0.75 13.5716Z" stroke="black" stroke-width="1.5" stroke-linecap="round" stroke-linejoin="round"/>
<path d="M2.89244 4.28571C2.89244 6.23843 4.47543 7.82143 6.42815 7.82143C8.38087 7.82143 9.96387 6.23843 9.96387 4.28571C9.96387 2.33299 8.38087 0.75 6.42815 0.75C4.47543 0.75 2.89244 2.33299 2.89244 4.28571Z" stroke="black" stroke-width="1.5"/>
<path d="M12.1429 2.14307C13.8571 2.14307 15 3.57164 15 5.00021C15 6.42878 13.8571 7.85735 12.1429 7.85735" stroke="black" stroke-width="1.5" stroke-linecap="round" stroke-linejoin="round"/>
<path d="M15.0951 15C17.7618 15 19.2856 14.6429 19.2856 12.5C19.2856 10.3571 17.7618 10 13.5713 10" stroke="black" stroke-width="1.5" stroke-linecap="round" stroke-linejoin="round"/>
</svg>
