<svg width="18" height="18" viewBox="0 0 24 24" fill="none" xmlns="http://www.w3.org/2000/svg">
<mask id="path-1-inside-1_1673_855" fill="white">
<path d="M0 12C0 21.882 2.118 24 12 24C21.882 24 24 21.882 24 12C24 2.118 21.882 0 12 0C2.118 0 0 2.118 0 12Z"/>
</mask>
<path d="M0 12C0 21.882 2.118 24 12 24C21.882 24 24 21.882 24 12C24 2.118 21.882 0 12 0C2.118 0 0 2.118 0 12Z" stroke="#212135" stroke-width="4" stroke-linecap="round" stroke-linejoin="round" mask="url(#path-1-inside-1_1673_855)"/>
<path fill-rule="evenodd" clip-rule="evenodd" d="M13 17C13 17.5523 12.5523 18 12 18C11.4477 18 11 17.5523 11 17V11C11 10.4477 11.4477 10 12 10C12.5523 10 13 10.4477 13 11V17ZM12 9C11.4477 9 11 8.55229 11 8C11 7.44771 11.4477 7 12 7C12.5523 7 13 7.44771 13 8C13 8.55229 12.5523 9 12 9Z" fill="#212135"/>
</svg>
