<svg width="35" height="35" viewBox="0 0 48 48" fill="none" xmlns="http://www.w3.org/2000/svg">
<path d="M24 4.32187C30.4125 4.32187 31.1719 4.35 33.6938 4.4625C36.0375 4.56562 37.3031 4.95937 38.1469 5.2875C39.2625 5.71875 40.0688 6.24375 40.9031 7.07812C41.7469 7.92187 42.2625 8.71875 42.6938 9.83437C43.0219 10.6781 43.4156 11.9531 43.5188 14.2875C43.6313 16.8187 43.6594 17.5781 43.6594 23.9812C43.6594 30.3937 43.6313 31.1531 43.5188 33.675C43.4156 36.0187 43.0219 37.2844 42.6938 38.1281C42.2625 39.2438 41.7375 40.05 40.9031 40.8844C40.0594 41.7281 39.2625 42.2438 38.1469 42.675C37.3031 43.0031 36.0281 43.3969 33.6938 43.5C31.1625 43.6125 30.4031 43.6406 24 43.6406C17.5875 43.6406 16.8281 43.6125 14.3063 43.5C11.9625 43.3969 10.6969 43.0031 9.85313 42.675C8.7375 42.2438 7.93125 41.7188 7.09688 40.8844C6.25313 40.0406 5.7375 39.2438 5.30625 38.1281C4.97813 37.2844 4.58438 36.0094 4.48125 33.675C4.36875 31.1438 4.34063 30.3844 4.34063 23.9812C4.34063 17.5687 4.36875 16.8094 4.48125 14.2875C4.58438 11.9437 4.97813 10.6781 5.30625 9.83437C5.7375 8.71875 6.2625 7.9125 7.09688 7.07812C7.94063 6.23437 8.7375 5.71875 9.85313 5.2875C10.6969 4.95937 11.9719 4.56562 14.3063 4.4625C16.8281 4.35 17.5875 4.32187 24 4.32187ZM24 0C17.4844 0 16.6688 0.028125 14.1094 0.140625C11.5594 0.253125 9.80625 0.665625 8.2875 1.25625C6.70312 1.875 5.3625 2.69062 4.03125 4.03125C2.69063 5.3625 1.875 6.70313 1.25625 8.27812C0.665625 9.80625 0.253125 11.55 0.140625 14.1C0.028125 16.6687 0 17.4844 0 24C0 30.5156 0.028125 31.3312 0.140625 33.8906C0.253125 36.4406 0.665625 38.1937 1.25625 39.7125C1.875 41.2969 2.69063 42.6375 4.03125 43.9687C5.3625 45.3 6.70313 46.125 8.27813 46.7344C9.80625 47.325 11.55 47.7375 14.1 47.85C16.6594 47.9625 17.475 47.9906 23.9906 47.9906C30.5063 47.9906 31.3219 47.9625 33.8813 47.85C36.4313 47.7375 38.1844 47.325 39.7031 46.7344C41.2781 46.125 42.6188 45.3 43.95 43.9687C45.2812 42.6375 46.1063 41.2969 46.7156 39.7219C47.3063 38.1938 47.7188 36.45 47.8313 33.9C47.9438 31.3406 47.9719 30.525 47.9719 24.0094C47.9719 17.4937 47.9438 16.6781 47.8313 14.1187C47.7188 11.5687 47.3063 9.81562 46.7156 8.29687C46.125 6.70312 45.3094 5.3625 43.9688 4.03125C42.6375 2.7 41.2969 1.875 39.7219 1.26562C38.1938 0.675 36.45 0.2625 33.9 0.15C31.3313 0.028125 30.5156 0 24 0Z" fill="black"/>
<path d="M24 11.6709C17.1938 11.6709 11.6719 17.1928 11.6719 23.999C11.6719 30.8053 17.1938 36.3271 24 36.3271C30.8062 36.3271 36.3281 30.8053 36.3281 23.999C36.3281 17.1928 30.8062 11.6709 24 11.6709ZM24 31.9959C19.5844 31.9959 16.0031 28.4146 16.0031 23.999C16.0031 19.5834 19.5844 16.0021 24 16.0021C28.4156 16.0021 31.9969 19.5834 31.9969 23.999C31.9969 28.4146 28.4156 31.9959 24 31.9959Z" fill="black"/>
<path d="M39.6937 11.1838C39.6937 12.7775 38.4 14.0619 36.8156 14.0619C35.2219 14.0619 33.9375 12.7682 33.9375 11.1838C33.9375 9.59004 35.2313 8.30566 36.8156 8.30566C38.4 8.30566 39.6937 9.59942 39.6937 11.1838Z" fill="black"/>
</svg>
