<svg width="18" height="18" viewBox="0 0 28 28" fill="none" xmlns="http://www.w3.org/2000/svg">
<path d="M1.28349 13.7873C1.92527 17.0435 4.00408 19.7694 6.41035 21.9179C8.809 24.0596 11.4442 25.5474 13.0257 26.3374C13.6441 26.6464 14.3559 26.6464 14.9743 26.3374C16.5558 25.5474 19.191 24.0596 21.5897 21.9179C23.996 19.7694 26.0748 17.0436 26.7165 13.7873C27.2348 11.1576 26.6822 7.98917 24.7237 5.49123C22.7911 3.02649 19.397 1.1 14 1.1C8.603 1.1 5.20887 3.02649 3.27632 5.49123C1.31774 7.98918 0.765188 11.1576 1.28349 13.7873Z" stroke="black" stroke-width="2.2" stroke-linecap="round" stroke-linejoin="round"/>
<circle r="3.56667" transform="matrix(-1 0 0 1 14.0003 11.6667)" stroke="black" stroke-width="2.2"/>
</svg>
