<svg width="18" height="18" viewBox="0 0 28 26" fill="none" xmlns="http://www.w3.org/2000/svg">
<mask id="path-1-inside-1" fill="white">
<path d="M0 13C0 23.7055 2.471 26 14 26C25.529 26 28 23.7055 28 13C28 2.2945 25.529 1.90735e-06 14 1.90735e-06C6.41091 1.90735e-06 2.74672 0.994225 1.12862 4.72727C0.288578 6.6653 0 9.34151 0 13Z"/>
</mask>
<path d="M25.9886 4.02273C26.3777 3.55618 27.0713 3.49341 27.5379 3.88251C28.0044 4.27163 28.0672 4.96527 27.6781 5.43182L25.9886 4.02273ZM14 13L14.0015 14.1L14 13ZM0.284468 5.43254C-0.105041 4.96633 -0.04286 4.27263 0.423354 3.88312C0.889567 3.49361 1.58327 3.55579 1.97278 4.02201L0.284468 5.43254ZM26.8333 4.72727C27.6781 5.43182 27.6779 5.43202 27.6777 5.43226C27.6776 5.43238 27.6774 5.43265 27.6772 5.4329C27.6768 5.43338 27.6763 5.43399 27.6757 5.43473C27.6744 5.4362 27.6728 5.43817 27.6707 5.44064C27.6666 5.44556 27.6608 5.45245 27.6533 5.46125C27.6385 5.47884 27.617 5.50404 27.5893 5.53635C27.5339 5.60097 27.4532 5.69406 27.3492 5.81156C27.1412 6.04648 26.8395 6.37946 26.4595 6.77791C25.7009 7.5734 24.6235 8.63679 23.351 9.70358C22.0817 10.7677 20.5965 11.8536 19.0217 12.6784C17.4554 13.4988 15.7306 14.0977 14.0015 14.1L13.9985 11.9C15.2396 11.8983 16.6041 11.4611 18.001 10.7295C19.3893 10.0024 20.7411 9.02073 21.9376 8.01765C23.1309 7.01727 24.148 6.01398 24.8675 5.2596C25.2265 4.8831 25.5097 4.57035 25.7019 4.35326C25.798 4.24476 25.8712 4.16028 25.9196 4.10383C25.9438 4.07561 25.9618 4.05441 25.9734 4.04072C25.9792 4.03387 25.9834 4.02891 25.9859 4.02589C25.9872 4.02438 25.988 4.02336 25.9885 4.02283C25.9887 4.02256 25.9888 4.02242 25.9888 4.02241C25.9889 4.0224 25.9888 4.02248 25.9888 4.02247C25.9887 4.02258 25.9886 4.02273 26.8333 4.72727ZM14.0015 14.1C12.2686 14.1024 10.5393 13.5056 8.9686 12.686C7.38932 11.862 5.89952 10.7755 4.62618 9.71041C3.34961 8.6426 2.26856 7.57768 1.5073 6.78092C1.126 6.38184 0.823266 6.04828 0.614555 5.81295C0.510162 5.69524 0.429182 5.60199 0.373548 5.53726C0.345727 5.50489 0.324234 5.47964 0.309309 5.46202C0.301847 5.45321 0.296025 5.4463 0.291875 5.44137C0.2898 5.43891 0.288143 5.43693 0.286907 5.43546C0.286289 5.43472 0.285777 5.43411 0.28537 5.43362C0.285167 5.43338 0.284941 5.43311 0.284839 5.43299C0.28464 5.43275 0.284468 5.43254 1.12862 4.72727C1.97278 4.02201 1.97266 4.02186 1.97256 4.02175C1.97257 4.02176 1.9725 4.02167 1.97251 4.02168C1.97252 4.0217 1.97264 4.02184 1.97286 4.02211C1.97331 4.02264 1.97417 4.02367 1.97544 4.02518C1.97799 4.02821 1.98218 4.03318 1.98799 4.04004C1.99961 4.05375 2.01769 4.075 2.042 4.10328C2.09061 4.15985 2.16408 4.24449 2.26049 4.3532C2.45338 4.57069 2.73765 4.88401 3.09797 5.26113C3.81994 6.01677 4.84055 7.02154 6.0377 8.02293C7.23809 9.02701 8.59407 10.0092 9.98627 10.7356C11.387 11.4664 12.7549 11.9017 13.9985 11.9L14.0015 14.1ZM1.12862 4.72727L-0.889913 3.85233L1.12862 4.72727ZM2.2 13C2.2 18.416 2.89095 20.7114 4.17362 21.9024C4.81013 22.4935 5.77798 22.9863 7.39334 23.3196C9.02519 23.6564 11.164 23.8 14 23.8V28.2C11.0715 28.2 8.57806 28.0568 6.50406 27.6288C4.41358 27.1974 2.602 26.4475 1.17963 25.1267C-1.65545 22.4941 -2.2 18.2895 -2.2 13H2.2ZM14 23.8C16.836 23.8 18.9748 23.6564 20.6067 23.3196C22.222 22.9863 23.1899 22.4935 23.8264 21.9024C25.1091 20.7114 25.8 18.416 25.8 13H30.2C30.2 18.2895 29.6554 22.4941 26.8204 25.1267C25.398 26.4475 23.5864 27.1974 21.4959 27.6288C19.4219 28.0568 16.9285 28.2 14 28.2V23.8ZM25.8 13C25.8 7.58403 25.1091 5.28863 23.8264 4.09758C23.1899 3.50654 22.222 3.01375 20.6067 2.68039C18.9748 2.34363 16.836 2.2 14 2.2V-2.2C16.9285 -2.2 19.4219 -2.05681 21.4959 -1.62881C23.5864 -1.1974 25.398 -0.447475 26.8204 0.873293C29.6554 3.50587 30.2 7.71047 30.2 13H25.8ZM14 2.2C10.2344 2.2 7.73911 2.45648 6.04457 3.0428C4.50889 3.57417 3.69019 4.3494 3.14716 5.60221L-0.889913 3.85233C0.185152 1.3721 2.0076 -0.216307 4.60581 -1.11532C7.04517 -1.95936 10.1766 -2.2 14 -2.2V2.2ZM3.14716 5.60221C2.50053 7.09402 2.2 9.37423 2.2 13H-2.2C-2.2 9.30879 -1.92337 6.23659 -0.889913 3.85233L3.14716 5.60221Z" fill="black" mask="url(#path-1-inside-1)"/>
</svg>
