<svg width="18" height="18" viewBox="0 0 20 18" fill="none" xmlns="http://www.w3.org/2000/svg">
<path d="M4.07039 10.8388C2.2641 10.8388 0.799805 9.37813 0.799805 7.57635C0.799805 5.77457 2.2641 4.31394 4.07039 4.31394H5.1494M4.07039 10.8388C4.07039 10.8388 5.1998 14.7515 5.5998 15.9474C5.9998 17.1432 7.99981 17.1432 7.99981 15.5488C7.99981 13.9543 7.99981 13.079 7.99981 11.0468M4.07039 10.8388H5.1494M7.99981 11.0468C10.278 11.5658 12.3892 12.9487 14.4204 13.9619C18.4909 15.992 18.3996 9.5535 18.3996 7.57635C18.3996 5.5992 18.4909 -0.839293 14.4204 1.19085C11.8727 2.46153 9.1993 4.31394 6.22842 4.31394H5.1494M7.99981 11.0468C7.42061 10.9149 6.83063 10.8388 6.22842 10.8388H5.1494M5.1494 10.8388V4.31394" stroke="black" stroke-width="1.6"/>
<path d="M19.2002 5.60059V9.60059" stroke="black" stroke-width="1.6" stroke-linecap="round" stroke-linejoin="round"/>
</svg>
