<svg width="18" height="18" viewBox="0 0 24 22" fill="none" xmlns="http://www.w3.org/2000/svg">
<path d="M9 17C9 15.0474 9 11 9 11C9 3 9 1 16 1C23 1 23 3 23 11C23 11 23 13.4853 23 17M9 17C9 19.2091 7.20914 21 5 21C2.79086 21 1 19.2091 1 17C1 14.7909 2.79086 13 5 13C7.20914 13 9 14.7909 9 17ZM23 17C23 19.2091 21.2091 21 19 21C16.7909 21 15 19.2091 15 17C15 14.7909 16.7909 13 19 13C21.2091 13 23 14.7909 23 17Z" stroke="black" stroke-width="2" stroke-linecap="round" stroke-linejoin="round"/>
</svg>
