<svg width="18" height="18" viewBox="0 0 28 28" fill="none" xmlns="http://www.w3.org/2000/svg">
<path fill-rule="evenodd" clip-rule="evenodd" d="M2.2 13.2486C2.2 18.2257 3.10421 20.7456 4.53815 22.1284C5.99102 23.5293 8.53183 24.2972 13.2486 24.2972C17.9654 24.2972 20.5062 23.5293 21.9591 22.1284C23.393 20.7456 24.2972 18.2257 24.2972 13.2486C24.2972 8.27157 23.393 5.7516 21.9591 4.36888C20.5062 2.9679 17.9654 2.2 13.2486 2.2C8.53183 2.2 5.99102 2.9679 4.53815 4.36888C3.10421 5.7516 2.2 8.27157 2.2 13.2486ZM0 13.2486C0 23.4862 3.61326 26.4972 13.2486 26.4972C17.4924 26.4972 20.568 25.9131 22.6812 24.3847L25.9439 27.6474C26.4142 28.1177 27.1768 28.1177 27.6472 27.6474C28.1176 27.177 28.1176 26.4144 27.6472 25.9441L24.3786 22.6755C25.8517 20.6121 26.4972 17.5759 26.4972 13.2486C26.4972 3.01105 22.884 0 13.2486 0C3.61326 0 0 3.01105 0 13.2486Z" fill="white"/>
</svg>
