<svg width="18" height="18" viewBox="0 0 28 28" fill="none" xmlns="http://www.w3.org/2000/svg">
<path d="M2.46945 20.2243C1.43389 19.2155 1.02122 17.773 1.1121 15.9733C1.20343 14.1646 1.80218 12.1238 2.63663 10.1302C3.46637 8.14797 4.50242 6.27519 5.41301 4.81996C6.30603 3.39282 7.01945 2.46136 7.27173 2.19818C7.29389 2.18762 7.36587 2.15251 7.51757 2.10414C7.75405 2.02873 8.08427 1.95145 8.50651 1.87615C9.34776 1.72612 10.4501 1.60189 11.6799 1.49901C14.1344 1.29367 16.992 1.1815 19.0697 1.10197C20.2124 1.05823 21.3939 1.75197 21.9623 2.78431C22.9701 4.61476 24.2923 7.12836 25.324 9.34303C25.8411 10.4529 26.2752 11.4664 26.5605 12.2717C26.7036 12.6756 26.8011 13.0043 26.8547 13.2534C26.8974 13.4516 26.8987 13.54 26.9004 13.5524C26.8688 13.6763 26.7589 13.9965 26.5341 14.5171C26.3043 15.0491 25.9828 15.7259 25.5813 16.4905C24.7772 18.0219 23.6687 19.8741 22.3613 21.596C21.0462 23.3281 19.573 24.8706 18.0532 25.8425C16.5427 26.8084 15.0998 27.1453 13.725 26.7154C12.7582 26.413 10.3536 25.194 7.89476 23.7839C6.68779 23.0918 5.50334 22.3741 4.52327 21.7334C3.51885 21.0768 2.80032 20.5466 2.46945 20.2243Z" stroke="black" stroke-width="2.2" stroke-linecap="round" stroke-linejoin="round"/>
<path d="M18.6061 10.0944C19.2784 8.93008 18.8794 7.44126 17.7151 6.76903C16.5508 6.09681 15.0619 6.49574 14.3897 7.66007C13.7175 8.8244 14.1164 10.3132 15.2808 10.9854C16.4451 11.6577 17.9339 11.2587 18.6061 10.0944Z" stroke="black" stroke-width="2.2"/>
<rect x="6.09375" y="15.1143" width="11.7832" height="2.35623" rx="1.17812" transform="rotate(30 6.09375 15.1143)" fill="black"/>
</svg>
