<svg width="35" height="35" viewBox="0 0 48 48" fill="none" xmlns="http://www.w3.org/2000/svg">
<path fill-rule="evenodd" clip-rule="evenodd" d="M48 24C48 37.2548 37.2548 48 24 48C10.7452 48 0 37.2548 0 24C0 10.7452 10.7452 0 24 0C37.2548 0 48 10.7452 48 24ZM24.8603 17.7169C22.526 18.6878 17.8605 20.6974 10.8641 23.7457C9.72794 24.1975 9.13279 24.6395 9.07861 25.0716C8.98705 25.802 9.9017 26.0896 11.1472 26.4813C11.3166 26.5346 11.4922 26.5898 11.6722 26.6483C12.8976 27.0466 14.5459 27.5126 15.4029 27.5311C16.1802 27.5479 17.0477 27.2274 18.0056 26.5697C24.5426 22.157 27.917 19.9267 28.1289 19.8786C28.2784 19.8446 28.4855 19.802 28.6258 19.9267C28.7661 20.0515 28.7523 20.2877 28.7375 20.351C28.6469 20.7373 25.0565 24.0753 23.1985 25.8026C22.6193 26.3411 22.2084 26.7231 22.1244 26.8103C21.9363 27.0057 21.7445 27.1906 21.5602 27.3682C20.4218 28.4657 19.5681 29.2887 21.6075 30.6326C22.5875 31.2784 23.3718 31.8125 24.1541 32.3453C25.0086 32.9272 25.8608 33.5075 26.9635 34.2304C27.2444 34.4145 27.5127 34.6058 27.774 34.7921C28.7684 35.501 29.6618 36.1379 30.7655 36.0363C31.4068 35.9773 32.0692 35.3743 32.4056 33.5757C33.2007 29.3253 34.7635 20.1159 35.1247 16.321C35.1564 15.9885 35.1166 15.563 35.0846 15.3762C35.0526 15.1894 34.9858 14.9233 34.743 14.7262C34.4555 14.4929 34.0115 14.4437 33.813 14.4472C32.9103 14.4631 31.5254 14.9447 24.8603 17.7169Z" fill="black"/>
</svg>
