<svg width="18" height="18" viewBox="0 0 24 24" fill="none" xmlns="http://www.w3.org/2000/svg">
<path d="M17 14.9996C17 14.9996 16 17.9996 12 17.9996C8 17.9996 7 14.9996 7 14.9996" stroke="black" stroke-width="2" stroke-linecap="round" stroke-linejoin="round"/>
<path d="M7 9.99963L8.5 7.99963L10 9.99963" stroke="black" stroke-width="2" stroke-linecap="round" stroke-linejoin="round"/>
<path d="M14 9.99963L15.5 7.99963L17 9.99963" stroke="black" stroke-width="2" stroke-linecap="round" stroke-linejoin="round"/>
<mask id="path-4-inside-1" fill="white">
<path fill-rule="evenodd" clip-rule="evenodd" d="M3.33995 0.212191C2.23037 -0.29965 0.86979 0.131127 0.608286 1.32476C0.162695 3.35866 0 5.94362 0 9.20319C0 21.341 5 24 12 24C19 24 24 21.341 24 9.20319C24 5.94362 23.8373 3.35866 23.3917 1.32476C23.1302 0.131128 21.7696 -0.299649 20.66 0.212191C18.0907 1.3974 15.1392 2.07159 12 2.07159C8.8608 2.07159 5.90928 1.3974 3.33995 0.212191Z"/>
</mask>
<path d="M23.3917 1.32476L21.438 1.75278L23.3917 1.32476ZM-1.34538 0.896748C-1.83833 3.14683 -2 5.9062 -2 9.20319H2C2 5.98103 2.16372 3.57049 2.56195 1.75277L-1.34538 0.896748ZM-2 9.20319C-2 15.4751 -0.720375 19.8147 1.9422 22.5487C4.63042 25.309 8.30499 26 12 26V22C8.69501 22 6.36958 21.3615 4.8078 19.7579C3.22038 18.1279 2 15.069 2 9.20319H-2ZM12 26C15.695 26 19.3696 25.309 22.0578 22.5487C24.7204 19.8147 26 15.4751 26 9.20319H22C22 15.069 20.7796 18.1279 19.1922 19.7579C17.6304 21.3615 15.305 22 12 22V26ZM26 9.20319C26 5.9062 25.8383 3.14683 25.3454 0.896749L21.438 1.75278C21.8363 3.5705 22 5.98103 22 9.20319H26ZM19.8223 -1.6039C17.5188 -0.541304 14.8534 0.0715923 12 0.0715923V4.07159C15.425 4.07159 18.6627 3.33611 21.4978 2.02828L19.8223 -1.6039ZM12 0.0715923C9.14657 0.0715923 6.48122 -0.541305 4.1777 -1.6039L2.50221 2.02828C5.33735 3.33611 8.57502 4.07159 12 4.07159V0.0715923ZM25.3454 0.896749C25.0546 -0.43059 24.1254 -1.33673 23.0497 -1.74242C22.0124 -2.13359 20.8391 -2.07293 19.8223 -1.6039L21.4978 2.02828C21.538 2.00973 21.5769 2.00163 21.6081 2.00022C21.6405 1.99876 21.6507 2.00498 21.6382 2.00026C21.6239 1.99489 21.5791 1.97401 21.5294 1.91922C21.4752 1.85954 21.4471 1.79414 21.438 1.75278L25.3454 0.896749ZM2.56195 1.75277C2.55289 1.79414 2.52479 1.85954 2.47065 1.91921C2.42094 1.97401 2.3761 1.99489 2.36185 2.00026C2.34933 2.00498 2.35948 1.99876 2.39192 2.00022C2.42311 2.00163 2.46199 2.00973 2.50221 2.02828L4.1777 -1.6039C3.16092 -2.07293 1.98756 -2.13359 0.950336 -1.74242C-0.125353 -1.33673 -1.05458 -0.430591 -1.34538 0.896748L2.56195 1.75277Z" fill="black" mask="url(#path-4-inside-1)"/>
</svg>
