<svg width="18" height="18" viewBox="0 0 28 28" fill="none" xmlns="http://www.w3.org/2000/svg">
<path fill-rule="evenodd" clip-rule="evenodd" d="M2.23443 9.73242C2.29231 7.83618 2.44487 6.82421 2.7285 6.06221C3.29829 4.53145 4.03299 3.71702 5.15921 3.08576C6.08422 2.56727 7.68434 2.2 11.4081 2.2H16.5923C20.316 2.2 21.9162 2.56727 22.8412 3.08576C23.9674 3.71702 24.7021 4.53145 25.2719 6.06221C25.5555 6.82421 25.7081 7.83617 25.766 9.73241C25.7757 10.052 25.7815 10.2612 25.7819 10.4145C25.617 10.4194 25.3918 10.42 25.0459 10.42C22.667 10.42 21.4618 12.6077 21.4618 14.3184C21.4618 16.0292 22.667 18.2169 25.0459 18.2169C25.3847 18.2169 25.6062 18.2175 25.7685 18.2222C25.7678 18.2593 25.7667 18.3009 25.7652 18.3478C25.7606 18.4906 25.753 18.6555 25.7433 18.8672C25.6729 20.3918 25.5212 21.2679 25.2719 21.9378C24.7021 23.4686 23.9674 24.283 22.8412 24.9142C21.9162 25.4327 20.316 25.8 16.5923 25.8H11.4081C7.68434 25.8 6.08422 25.4327 5.15921 24.9142C4.03299 24.283 3.29829 23.4686 2.7285 21.9378C2.47916 21.2679 2.3275 20.3918 2.25713 18.8672C2.24736 18.6555 2.23979 18.4906 2.23518 18.3478C2.23366 18.3009 2.23257 18.2593 2.23185 18.2222C2.39422 18.2175 2.61565 18.2169 2.9545 18.2169C5.3334 18.2169 6.53856 16.0292 6.53856 14.3184C6.53856 12.6077 5.3334 10.42 2.9545 10.42C2.60858 10.42 2.38342 10.4194 2.21848 10.4145C2.21888 10.2612 2.22467 10.0521 2.23443 9.73242ZM2.9545 12.62C2.06661 12.62 1.62267 12.62 1.26553 12.4774C0.746503 12.2701 0.319416 11.8298 0.128087 11.3047C-0.00356656 10.9434 0.00943879 10.5173 0.0354495 9.66529C0.0947462 7.72289 0.25163 6.40987 0.666702 5.29476C1.40433 3.31308 2.46865 2.07184 4.08353 1.16667C5.5444 0.347821 7.65272 0 11.4081 0H16.5923C20.3477 0 22.456 0.347821 23.9169 1.16667C25.5317 2.07184 26.5961 3.31308 27.3337 5.29476C27.7488 6.40987 27.9056 7.72289 27.9649 9.66528C27.991 10.5173 28.004 10.9434 27.8723 11.3047C27.681 11.8298 27.2539 12.2701 26.7349 12.4774C26.3777 12.62 25.9338 12.62 25.0459 12.62C24.2815 12.62 23.6618 13.3804 23.6618 14.3184C23.6618 15.2564 24.2815 16.0169 25.0459 16.0169C25.9268 16.0169 26.3673 16.0169 26.7245 16.1595C27.249 16.369 27.6872 16.8279 27.8723 17.3615C27.9983 17.7249 27.9792 18.1395 27.9409 18.9686C27.867 20.5708 27.7019 21.7159 27.3337 22.7052C26.5961 24.6869 25.5317 25.9282 23.9169 26.8333C22.456 27.6522 20.3477 28 16.5923 28H11.4081C7.65272 28 5.5444 27.6522 4.08353 26.8333C2.46865 25.9282 1.40433 24.6869 0.666702 22.7052C0.298451 21.7159 0.133426 20.5708 0.059472 18.9686C0.021199 18.1395 0.00206245 17.7249 0.128089 17.3615C0.313143 16.8279 0.751422 16.369 1.27589 16.1595C1.63306 16.0169 2.07354 16.0169 2.9545 16.0169C3.71889 16.0169 4.33856 15.2564 4.33856 14.3184C4.33856 13.3804 3.71889 12.62 2.9545 12.62ZM19.1041 13C19.1041 12.3925 18.6116 11.9 18.0041 11.9C17.3966 11.9 16.9041 12.3925 16.9041 13V15C16.9041 15.6075 17.3966 16.1 18.0041 16.1C18.6116 16.1 19.1041 15.6075 19.1041 15V13ZM18.0041 4.9C18.6116 4.9 19.1041 5.39249 19.1041 6V8C19.1041 8.60751 18.6116 9.1 18.0041 9.1C17.3966 9.1 16.9041 8.60751 16.9041 8V6C16.9041 5.39249 17.3966 4.9 18.0041 4.9ZM19.1041 20C19.1041 19.3925 18.6116 18.9 18.0041 18.9C17.3966 18.9 16.9041 19.3925 16.9041 20V22C16.9041 22.6075 17.3966 23.1 18.0041 23.1C18.6116 23.1 19.1041 22.6075 19.1041 22V20Z" fill="white"/>
</svg>
