<svg width="18" height="18" viewBox="0 0 26 28" fill="none" xmlns="http://www.w3.org/2000/svg">
<path fill-rule="evenodd" clip-rule="evenodd" d="M8.10909 7C8.10909 9.62428 10.272 11.8 13 11.8C15.728 11.8 17.8909 9.62428 17.8909 7C17.8909 4.37571 15.728 2.2 13 2.2C10.272 2.2 8.10909 4.37571 8.10909 7ZM5.90909 7C5.90909 10.866 9.0838 14 13 14C16.9162 14 20.0909 10.866 20.0909 7C20.0909 3.13401 16.9162 0 13 0C9.0838 0 5.90909 3.13401 5.90909 7ZM2.2 22.1667C2.2 23.2332 2.33522 23.8012 2.49724 24.1283C2.6186 24.3733 2.81974 24.6234 3.3861 24.8776C4.02318 25.1634 5.03908 25.4122 6.67068 25.5749C8.28109 25.7355 10.3451 25.8 13 25.8C15.6549 25.8 17.7189 25.7355 19.3293 25.5749C20.9609 25.4122 21.9768 25.1634 22.6139 24.8776C23.1803 24.6234 23.3814 24.3733 23.5028 24.1283C23.6648 23.8012 23.8 23.2332 23.8 22.1667C23.8 21.1002 23.6648 20.5322 23.5028 20.2051C23.3814 19.96 23.1803 19.7099 22.6139 19.4558C21.9768 19.1699 20.9609 18.9211 19.3293 18.7584C17.7189 18.5978 15.6549 18.5333 13 18.5333C10.3451 18.5333 8.28109 18.5978 6.67068 18.7584C5.03908 18.9211 4.02318 19.1699 3.3861 19.4558C2.81974 19.7099 2.6186 19.96 2.49724 20.2051C2.33522 20.5322 2.2 21.1002 2.2 22.1667ZM0 22.1667C0 26.9704 2.2945 28 13 28C23.7055 28 26 26.9704 26 22.1667C26 17.3629 23.7055 16.3333 13 16.3333C2.2945 16.3333 0 17.3629 0 22.1667Z" fill="black"/>
</svg>
